<svg id="roadster-line" xmlns="http://www.w3.org/2000/svg" width="49.999" height="49.999" viewBox="0 0 49.999 49.999">
    <path id="Контур_100" data-name="Контур 100" d="M0,0H50V50H0Z" fill="none"/>
    <path id="Контур_101" data-name="Контур 101" d="M39.582,37.333H10.416v2.083A2.083,2.083,0,0,1,8.333,41.5H6.25a2.083,2.083,0,0,1-2.083-2.083V23.791l-2.59-.646A2.083,2.083,0,0,1,0,21.125v-1.5a1.042,1.042,0,0,1,1.042-1.042H4.167L9.333,6.525A4.167,4.167,0,0,1,13.166,4H36.833a4.166,4.166,0,0,1,3.829,2.525l5.171,12.059h3.125A1.042,1.042,0,0,1,50,19.625v1.5a2.083,2.083,0,0,1-1.577,2.021l-2.59.646V39.416A2.083,2.083,0,0,1,43.749,41.5H41.666a2.083,2.083,0,0,1-2.083-2.083Zm2.083-4.167V22.75H8.333V33.166ZM11.41,18.583H38.589a2.083,2.083,0,0,0,1.933-2.856L37.5,8.167h-25l-3.023,7.56a2.083,2.083,0,0,0,1.933,2.856Zm-.994,6.25q7.24,0,9.762,4.717a1.042,1.042,0,0,1-.919,1.533H12.5A2.083,2.083,0,0,1,10.416,29Zm29.166,0V29A2.083,2.083,0,0,1,37.5,31.083h-6.76a1.042,1.042,0,0,1-.917-1.533Q32.338,24.831,39.582,24.833Z" transform="translate(0 4.333)" fill="#f48300"/>
</svg>
