<svg xmlns="http://www.w3.org/2000/svg" width="55.832" height="49.999" viewBox="0 0 55.832 49.999">
    <g id="Сгруппировать_45" data-name="Сгруппировать 45" transform="translate(-494 -2584)">
        <g id="hotel-line" transform="translate(494 2584)">
            <path id="Контур_94" data-name="Контур 94" d="M0,0H50V50H0Z" fill="none"/>
            <path id="Контур_95" data-name="Контур 95" d="M53.666,40.5H2V36.333H4.083V5.083A2.083,2.083,0,0,1,6.167,3H35.333a2.083,2.083,0,0,1,2.083,2.083V15.5H51.582V36.333h2.083ZM33.249,36.333H47.416V19.666h-22.5V36.333h4.167v-12.5h4.167Zm0-20.833V7.167h-25V36.333h12.5V15.5ZM12.416,19.666h4.167v4.167H12.416Zm0,8.333h4.167v4.167H12.416Zm0-16.666h4.167V15.5H12.416Z" transform="translate(2.167 3.25)" fill="#f48300"/>
        </g>
        <rect id="Прямоугольник_56" data-name="Прямоугольник 56" width="5" height="12" transform="translate(539 2594)" fill="#f48300"/>
    </g>
</svg>
