<svg id="star-smile-line" xmlns="http://www.w3.org/2000/svg" width="49.999" height="49.999" viewBox="0 0 49.999 49.999">
    <path id="Контур_96" data-name="Контур 96" d="M0,0H50V50H0Z" fill="none"/>
    <path id="Контур_97" data-name="Контур 97" d="M24.364.5l8.8,12.881L48.14,17.775,38.609,30.129l.448,15.6L24.364,40.478,9.67,45.724l.448-15.6L.587,17.775,15.56,13.381Zm0,7.383-6.2,9.079L7.608,20.056l6.719,8.7-.319,10.989,10.356-3.7,10.354,3.7L34.4,28.76l6.717-8.7-10.55-3.094-6.2-9.079ZM20.2,24.458a4.167,4.167,0,1,0,8.333,0H32.7a8.333,8.333,0,1,1-16.666,0Z" transform="translate(0.636 0.542)" fill="#f48300"/>
</svg>
