<svg xmlns="http://www.w3.org/2000/svg" width="248.797" height="217.688" viewBox="0 0 248.797 217.688">
    <path id="Контур_74" data-name="Контур 74" d="M248.61,132.187a22.886,22.886,0,0,0-4.017-13.012,33.149,33.149,0,0,0-21.374-14.289,44.017,44.017,0,0,0-8.323-.8q-.89,0-1.78.036l2.4-2.973.415-.515.329-.574q1.594-2.783,3.186-5.571l.161-.282.139-.293a23.505,23.505,0,0,0,2.1-12.858,17.939,17.939,0,0,0-2.066-8.948,23.956,23.956,0,0,0-7.841-11.026,38.9,38.9,0,0,0-9.765-5.675,31.558,31.558,0,0,0-9.136-3.186,44.023,44.023,0,0,0-8.319-.8q-.89,0-1.781.036l2.4-2.973.415-.515.329-.574q1.594-2.783,3.186-5.571l.16-.281.138-.292a23.5,23.5,0,0,0,2.1-12.861,17.952,17.952,0,0,0-2.065-8.945,23.967,23.967,0,0,0-7.852-11.035,40.025,40.025,0,0,0-14.984-7.39A32.914,32.914,0,0,0,153.123.456,33.988,33.988,0,0,0,139.6,4.126c-30.748,14.618-62,29.328-92.9,43.722-8.691,4.049-17.5,8.14-26.172,12.159A38.592,38.592,0,0,0,9.447,67.831,34.024,34.024,0,0,0,2.164,78.563,23.492,23.492,0,0,0,.188,91.375,22.7,22.7,0,0,0,3.5,103.287l.006.011.007.011.121.2,0,0,0,0c.171.279.337.539.509.8l.022.033.022.032a33.157,33.157,0,0,0,21.436,14.319,47.194,47.194,0,0,0,8.467.78,43.6,43.6,0,0,0,7.237-.6q-1.289,1.153-2.463,2.409a33.708,33.708,0,0,0-6.522,9.941,23.494,23.494,0,0,0-1.977,12.813,22.692,22.692,0,0,0,3.315,11.91l.119.2.009.014.009.014c.175.285.345.551.521.813l.015.022.015.023a33.149,33.149,0,0,0,21.436,14.322,47.227,47.227,0,0,0,8.466.78,43.114,43.114,0,0,0,10.151-1.193q-.681.963-1.281,1.94a26.515,26.515,0,0,0-4.175,12.844l-.017.433.027.433q.192,3.012.385,6.025l.03.472.083.466a23.493,23.493,0,0,0,6.154,12.108A19.718,19.718,0,0,0,82.5,211.75,28.881,28.881,0,0,0,94.624,216.9a48.039,48.039,0,0,0,8.523.783h.344a40.976,40.976,0,0,0,17.563-3.955l.031-.014.03-.015c27.433-13.289,55.419-26.488,83.18-39.231,7.9-3.625,15.936-7.282,23.876-10.869l.028-.013h.149l1.844-.978a38.262,38.262,0,0,0,9.918-7.656,33.908,33.908,0,0,0,6.522-9.948,23.49,23.49,0,0,0,1.976-12.82" transform="translate(0 0.001)" fill="#718d25"/>
</svg>
