<svg id="map-pin-line" xmlns="http://www.w3.org/2000/svg" width="40" height="40" viewBox="0 0 40 40">
    <path id="Контур_123" data-name="Контур 123" d="M0,0H40V40H0Z" fill="none"/>
    <path id="Контур_124" data-name="Контур 124" d="M20,34.818l9.35-8.6a11.473,11.473,0,0,0,0-17.189,14.057,14.057,0,0,0-18.7,0,11.473,11.473,0,0,0,0,17.189Zm0,4.91L7.979,28.678a14.751,14.751,0,0,1,0-22.1,18.073,18.073,0,0,1,24.042,0,14.751,14.751,0,0,1,0,22.1ZM20,21.1a3.635,3.635,0,0,0,3.778-3.473A3.635,3.635,0,0,0,20,14.155a3.635,3.635,0,0,0-3.778,3.473A3.635,3.635,0,0,0,20,21.1Zm0,3.473c-4.173,0-7.556-3.11-7.556-6.946S15.827,10.682,20,10.682s7.556,3.11,7.556,6.946S24.173,24.573,20,24.573Z" transform="translate(0 0)" fill="#fff"/>
</svg>
