<svg id="Сгруппировать_26" data-name="Сгруппировать 26" xmlns="http://www.w3.org/2000/svg" width="62.277" height="60" viewBox="0 0 62.277 60">
    <path id="Контур_1" data-name="Контур 1" d="M59.168,22.941c0,15.922-10.712,18.314-26.62,18.314-8.326,0-19.334,7.212-19.334,7.212A28.816,28.816,0,1,1,62.631,23.593c.311,1.7-3.462-2.44-3.462-.652" transform="translate(-1.252)" fill="#fff7ba"/>
    <path id="Контур_2" data-name="Контур 2" d="M79.556,17.971h0v0" transform="translate(-18.162 -4.103)" fill="#9ab600"/>
    <path id="Контур_3" data-name="Контур 3" d="M79.989,20.745c-.092-.621-.184-1.2-.27-1.739.087.541.18,1.142.271,1.768l0-.029" transform="translate(-18.199 -4.339)" fill="#9ab600"/>
    <path id="Контур_4" data-name="Контур 4" d="M79.682,18.772c-.046-.285-.086-.54-.125-.795.039.249.08.515.125.795" transform="translate(-18.162 -4.104)" fill="#9ab600"/>
    <path id="Контур_5" data-name="Контур 5" d="M78.813,17.882c-.022-.1-.055-.2-.077-.3-1.328.63-2.356,2.8-2.438,5.412-.086,2.757.907,5.09,2.3,5.664a24.1,24.1,0,0,0,.73-5.8c0-.813-.043-1.617-.122-2.41-.091-.626-.184-1.227-.271-1.768-.045-.28-.087-.545-.125-.795v0" transform="translate(-17.419 -4.016)" fill="#9ab600"/>
    <path id="Контур_6" data-name="Контур 6" d="M78.813,17.882c-.022-.1-.055-.2-.077-.3-1.328.63-2.356,2.8-2.438,5.412-.086,2.757.907,5.09,2.3,5.664a24.1,24.1,0,0,0,.73-5.8c0-.813-.043-1.617-.122-2.41-.091-.626-.184-1.227-.271-1.768-.045-.28-.087-.545-.125-.795v0" transform="translate(-17.419 -4.016)" fill="#c46c00"/>
    <path id="Контур_7" data-name="Контур 7" d="M75.221,15.976c-.092-.412-.22-.808-.332-1.212l.049.012,1.243-3.233h-2.4l-.008.017a.159.159,0,0,1-.007-.017l-.541,0c-5.942-3.686-8.408,3.788-8.637,5.177-.562,4.37-3.734,3.976-3.734,3.976h0A54.33,54.33,0,0,1,74.82,28.094c.1-.343.182-.694.268-1.043-1.4-.575-2.39-2.907-2.3-5.664.082-2.617,1.111-4.782,2.438-5.413" transform="translate(-13.905 -2.399)" fill="#f48300"/>
    <path id="Контур_8" data-name="Контур 8" d="M39.585,48.914C7.991,53.356,0,71.184,0,71.184,12.989,53.86,32.4,54.113,35.7,54.064a7.049,7.049,0,0,0,3.884-5.15" transform="translate(0 -11.184)" fill="#fdc31d"/>
    <path id="Контур_9" data-name="Контур 9" d="M57.8,30.313l-.016-.008a33.007,33.007,0,0,1,7.482.1l0-.006A54.372,54.372,0,0,0,51.3,23a38.147,38.147,0,0,0-19.435-1.8,29.225,29.225,0,0,0-12.985,8.891c.009.032.016.064.025.1,1.06.053,10.484.616,17.91,3.936-.2-.093-.392-.185-.6-.277A75.045,75.045,0,0,1,57.8,30.313" transform="translate(-4.349 -4.717)" fill="#c46c00"/>
    <path id="Контур_10" data-name="Контур 10" d="M78.793,33.759h0c.008-.023.014-.047.021-.071Z" transform="translate(-17.989 -7.691)" fill="#c46c00"/>
    <path id="Контур_11" data-name="Контур 11" d="M70.261,33.6c.068-.23.112-.393.112-.393a44.791,44.791,0,0,0-7.483-.093l-.009.012a75.115,75.115,0,0,0-21.558,3.531c.209.092.4.185.6.277,5.715,2.655,7.385,5.759,7.064,8.388a6.914,6.914,0,0,1-3.334,4.8q-.249.155-.5.287c.3.025.608.032.911.046a42.628,42.628,0,0,0,4.807-.426l.136-.023a32.47,32.47,0,0,0,5.048-1.182A24.185,24.185,0,0,0,69.9,34.568h.039c.12-.317.225-.646.3-.9.007-.022.017-.042.024-.064h0" transform="translate(-9.458 -7.541)" fill="#f48300"/>
    <path id="Контур_12" data-name="Контур 12" d="M9.878,40.97S19.85,14.386,43.034,20.987c4.729,1.667,14.117,8.473,17.024,15.889-1.5-.438-25.065-16.927-50.179,4.094" transform="translate(-2.249 -4.557)" fill="#fdc31d"/>
</svg>
