<svg xmlns="http://www.w3.org/2000/svg" width="212" height="69.315" viewBox="0 0 212 69.315">
    <g id="Сгруппировать_30" data-name="Сгруппировать 30" transform="translate(-247.361 -38)">
        <g id="Сгруппировать_26" data-name="Сгруппировать 26" transform="translate(247.361 38)">
            <path id="Контур_1" data-name="Контур 1" d="M67.506,26.481c0,18.379-12.376,21.14-30.755,21.14-9.62,0-22.337,8.325-22.337,8.325A33.279,33.279,0,1,1,71.506,27.233c.359,1.96-4-2.816-4-.752" transform="translate(-0.596)" fill="#fff7ba"/>
            <path id="Контур_2" data-name="Контур 2" d="M79.556,17.971h0v0" transform="translate(-8.63 -1.949)" fill="#9ab600"/>
            <path id="Контур_3" data-name="Контур 3" d="M80.03,21.013c-.106-.717-.212-1.39-.311-2.007.1.624.208,1.319.313,2.041l0-.034" transform="translate(-8.647 -2.062)" fill="#9ab600"/>
            <path id="Контур_4" data-name="Контур 4" d="M79.7,18.894c-.053-.329-.1-.623-.144-.917.045.288.093.595.144.917" transform="translate(-8.63 -1.95)" fill="#9ab600"/>
            <path id="Контур_5" data-name="Контур 5" d="M79.2,17.929c-.025-.119-.063-.231-.089-.349-1.533.727-2.72,3.226-2.814,6.247-.1,3.183,1.047,5.875,2.659,6.538a27.824,27.824,0,0,0,.842-6.691c0-.939-.05-1.866-.141-2.782-.105-.722-.212-1.417-.313-2.041-.052-.323-.1-.629-.144-.917v-.005" transform="translate(-8.276 -1.907)" fill="#9ab600"/>
            <path id="Контур_6" data-name="Контур 6" d="M79.2,17.929c-.025-.119-.063-.231-.089-.349-1.533.727-2.72,3.226-2.814,6.247-.1,3.183,1.047,5.875,2.659,6.538a27.824,27.824,0,0,0,.842-6.691c0-.939-.05-1.866-.141-2.782-.105-.722-.212-1.417-.313-2.041-.052-.323-.1-.629-.144-.917v-.005" transform="translate(-8.276 -1.907)" fill="#c46c00"/>
            <path id="Контур_7" data-name="Контур 7" d="M77.438,16.815c-.106-.475-.254-.933-.383-1.4l.057.014L78.547,11.7H75.779l-.009.02a.186.186,0,0,1-.008-.02l-.624,0c-6.859-4.255-9.705,4.372-9.97,5.976-.649,5.044-4.311,4.59-4.311,4.59h0A62.714,62.714,0,0,1,76.975,30.8c.117-.4.21-.8.309-1.2-1.614-.663-2.758-3.356-2.66-6.538.094-3.02,1.282-5.52,2.814-6.248" transform="translate(-6.601 -1.143)" fill="#f48300"/>
            <path id="Контур_8" data-name="Контур 8" d="M45.693,48.914C9.225,54.041,0,74.621,0,74.621c14.994-20,37.4-19.706,41.21-19.762a8.137,8.137,0,0,0,4.483-5.945" transform="translate(0 -5.306)" fill="#fdc31d"/>
            <path id="Контур_9" data-name="Контур 9" d="M63.8,31.8l-.019-.01a38.1,38.1,0,0,1,8.636.114l0-.007A62.763,62.763,0,0,0,56.3,23.366,44.034,44.034,0,0,0,33.87,21.287,33.735,33.735,0,0,0,18.882,31.55c.011.037.019.074.029.111,1.224.062,12.1.711,20.674,4.543-.229-.107-.453-.214-.694-.32A86.626,86.626,0,0,1,63.8,31.8" transform="translate(-2.048 -2.24)" fill="#c46c00"/>
            <path id="Контур_10" data-name="Контур 10" d="M78.793,33.77h0c.01-.027.016-.054.024-.082Z" transform="translate(-8.547 -3.654)" fill="#c46c00"/>
            <path id="Контур_11" data-name="Контур 11" d="M74.727,33.695c.078-.266.129-.454.129-.454a51.7,51.7,0,0,0-8.638-.107l-.011.013a86.706,86.706,0,0,0-24.884,4.076c.242.106.465.213.7.32,6.6,3.065,8.525,6.648,8.154,9.683a7.981,7.981,0,0,1-3.849,5.544q-.288.179-.582.332c.348.029.7.037,1.052.053a49.205,49.205,0,0,0,5.549-.491c.053-.008.1-.019.157-.027a37.48,37.48,0,0,0,5.827-1.365A27.918,27.918,0,0,0,74.311,34.811h.045c.138-.366.259-.746.349-1.042.008-.025.02-.049.028-.074h-.005" transform="translate(-4.482 -3.579)" fill="#f48300"/>
            <path id="Контур_12" data-name="Контур 12" d="M9.878,44.216S21.4,13.53,48.189,21.149C53.653,23.073,64.5,30.93,67.859,39.49,66.127,38.985,38.9,19.952,9.878,44.216" transform="translate(-1.071 -2.162)" fill="#fdc31d"/>
        </g>
        <g id="Сгруппировать_29" data-name="Сгруппировать 29" transform="translate(339.455 50.983)">
            <g id="Сгруппировать_28" data-name="Сгруппировать 28" transform="translate(0)">
                <path id="Контур_31" data-name="Контур 31" d="M8.15,16.791A8.123,8.123,0,0,1,0,8.5,8.123,8.123,0,0,1,8.15.214a8.035,8.035,0,0,1,7.713,5.71H12.386A4.85,4.85,0,0,0,8.15,3.46,4.91,4.91,0,0,0,3.247,8.5a4.909,4.909,0,0,0,4.9,5.041,4.781,4.781,0,0,0,4.191-2.416h3.5a7.994,7.994,0,0,1-7.69,5.663" transform="translate(0 -0.03)" fill="#33572c"/>
                <path id="Контур_32" data-name="Контур 32" d="M26.063,14.662a2.633,2.633,0,0,0,2.418-1.173H31.7a6.044,6.044,0,1,1,.346-2,9.212,9.212,0,0,1-.093,1.15H23.116a3.189,3.189,0,0,0,2.947,2.026m-2.947-4.467h5.848a3.194,3.194,0,0,0-5.848,0" transform="translate(-2.791 -0.756)" fill="#33572c"/>
                <path id="Контур_33" data-name="Контур 33" d="M49.465,17.306l-1.036-6.677-2.9,6.677H42.465l-2.855-6.631-1.036,6.631H35.489l1.8-11.741h3.247l3.476,8.151,3.453-8.151h3.247l1.842,11.741Z" transform="translate(-4.944 -0.775)" fill="#33572c"/>
                <path id="Контур_34" data-name="Контур 34" d="M62.876,14.662a2.632,2.632,0,0,0,2.417-1.173h3.223a6.044,6.044,0,1,1,.346-2,9.213,9.213,0,0,1-.092,1.15H59.929a3.188,3.188,0,0,0,2.947,2.026m-2.947-4.467h5.847a3.193,3.193,0,0,0-5.847,0" transform="translate(-7.919 -0.756)" fill="#33572c"/>
                <path id="Контур_35" data-name="Контур 35" d="M84.88,5.564V17.306H81.818V10.053l-5.594,7.253h-3.04V5.564h3.04V12.7l5.594-7.137Z" transform="translate(-10.196 -0.775)" fill="#33572c"/>
                <path id="Контур_36" data-name="Контур 36" d="M81.094,3.108H78.4L79.828,0h3.131Z" transform="translate(-10.922 0)" fill="#33572c"/>
                <path id="Контур_37" data-name="Контур 37" d="M101.423,5.564V17.306H98.361V12.862H93v4.444h-3.04V5.564H93v4.444h5.364V5.564Z" transform="translate(-12.532 -0.775)" fill="#33572c"/>
                <path id="Контур_38" data-name="Контур 38" d="M115.683,13.139a4.151,4.151,0,0,1-4.352,4.167H106.45V5.564h3.039v3.43h1.842a4.147,4.147,0,0,1,4.352,4.145m-2.947,0a1.411,1.411,0,0,0-1.4-1.405h-1.842v2.809h1.842a1.4,1.4,0,0,0,1.4-1.4m7.552,4.167h-3.039V5.564h3.039Z" transform="translate(-14.83 -0.775)" fill="#33572c"/>
                <path id="Контур_39" data-name="Контур 39" d="M137.421,5.564V17.306h-3.062V10.053l-5.594,7.253h-3.04V5.564h3.04V12.7l5.594-7.137Z" transform="translate(-17.515 -0.775)" fill="#33572c"/>
                <path id="Контур_40" data-name="Контур 40" d="M133.635,3.108h-2.693L132.368,0H135.5Z" transform="translate(-18.242 0)" fill="#33572c"/>
            </g>
            <g id="Сгруппировать_27" data-name="Сгруппировать 27" transform="translate(0 23.344)">
                <path id="Контур_49" data-name="Контур 49" d="M89.407,33.087H88.114v-5.2H85.665v5.2h-1.3V26.67h5.043Z" transform="translate(-17.658 -24.763)" fill="#33572c"/>
                <path id="Контур_50" data-name="Контур 50" d="M95.76,33.087H94.467v-5.2H92.973l-1.045,5.2H89.937V31.914h.909L91.9,26.67H95.76Z" transform="translate(-16.783 -24.763)" fill="#33572c"/>
                <path id="Контур_51" data-name="Контур 51" d="M96.634,26.669h4.236v1.218H97.936v1.386h2.5V30.4h-2.5v1.466h2.934v1.221H96.634Z" transform="translate(-15.732 -24.763)" fill="#33572c"/>
                <path id="Контур_52" data-name="Контур 52" d="M103.818,30.475h-.761v2.612h-1.3V26.67h1.3v2.6h.761l1.971-2.6h1.5l-2.43,3.19,2.549,3.228h-1.531Z" transform="translate(-14.928 -24.763)" fill="#33572c"/>
                <path id="Контур_53" data-name="Контур 53" d="M110.463,33.191a3.3,3.3,0,0,1,0-6.6,3.2,3.2,0,0,1,3.072,2.273H112.15a1.93,1.93,0,0,0-1.687-.98,2.009,2.009,0,0,0,0,4.016,1.9,1.9,0,0,0,1.668-.964h1.394a3.183,3.183,0,0,1-3.062,2.256" transform="translate(-14.071 -24.776)" fill="#33572c"/>
                <path id="Контур_41" data-name="Контур 41" d="M32.9,30.475h-.678v2.612H30.923V30.475h-.678l-2.008,2.612H26.706l2.476-3.228-2.357-3.19h1.5l1.916,2.6h.678v-2.6h1.295v2.6H32.9l1.916-2.6h1.5l-2.356,3.19,2.475,3.228H34.9Z" transform="translate(-26.706 -24.763)" fill="#33572c"/>
                <path id="Контур_42" data-name="Контур 42" d="M41.651,33.087H40.359V28.841l-2.522,4.246h-1.5V26.67h1.3v4.236l2.521-4.236h1.495Z" transform="translate(-25.195 -24.763)" fill="#33572c"/>
                <path id="Контур_43" data-name="Контур 43" d="M47.965,33.087H46.673v-5.2H45.178l-1.045,5.2h-1.99V31.914h.908l1.054-5.244h3.86Z" transform="translate(-24.283 -24.763)" fill="#33572c"/>
                <path id="Контур_44" data-name="Контур 44" d="M48.546,29.891a3.237,3.237,0,1,1,3.245,3.3,3.235,3.235,0,0,1-3.245-3.3m5.217,0A1.98,1.98,0,1,0,51.791,31.9a1.976,1.976,0,0,0,1.971-2.008" transform="translate(-23.278 -24.776)" fill="#33572c"/>
                <path id="Контур_45" data-name="Контур 45" d="M60.813,33.346h-1.3V29.129l-2.5,4.217h-1.5V26.929h1.3v4.226l2.513-4.226h1.494Zm-2.219-7.089H57.522l.568-1.236h1.247Z" transform="translate(-22.186 -25.022)" fill="#33572c"/>
                <path id="Контур_46" data-name="Контур 46" d="M66.318,30.475h-.761v2.612h-1.3V26.67h1.3v2.6h.761l1.971-2.6h1.5l-2.431,3.19,2.549,3.228H68.381Z" transform="translate(-20.813 -24.763)" fill="#33572c"/>
                <path id="Контур_47" data-name="Контур 47" d="M69.717,29.891a3.237,3.237,0,1,1,3.245,3.3,3.235,3.235,0,0,1-3.245-3.3m5.217,0A1.98,1.98,0,1,0,72.962,31.9a1.976,1.976,0,0,0,1.971-2.008" transform="translate(-19.956 -24.776)" fill="#33572c"/>
                <path id="Контур_48" data-name="Контур 48" d="M82.415,33.087l-.192-4.081-1.65,3.229h-.817L78.1,28.99l-.193,4.1H76.611l.3-6.418H78.28l1.889,3.657,1.879-3.657h1.366l.294,6.418Z" transform="translate(-18.874 -24.763)" fill="#33572c"/>
            </g>
        </g>
    </g>
</svg>
