<svg xmlns="http://www.w3.org/2000/svg" width="191.106" height="27.96" viewBox="0 0 191.106 27.96">
    <g id="Сгруппировать_67" data-name="Сгруппировать 67" transform="translate(1802.106 -8338.306)">
        <g id="Сгруппировать_65" data-name="Сгруппировать 65" transform="translate(-1759.1 8345.111)">
            <path id="Контур_129" data-name="Контур 129" d="M596.08,12.958h-6.053l-1.155,2.794h-3.092l5.811-13.037h2.98l5.83,13.037h-3.166Zm-.95-2.291-2.067-4.991L591,10.668Z" transform="translate(-585.781 -2.491)" fill="#7e9a7e"/>
            <path id="Контур_130" data-name="Контур 130" d="M782.251,2.715V15.752h-2.98V5.173H774.8l-.093,2.719c-.168,5.122-.894,8.064-3.948,8.064a6.616,6.616,0,0,1-1.49-.2l.186-2.552a1.8,1.8,0,0,0,.54.074c1.527,0,1.918-1.937,2.049-5.271l.186-5.289Z" transform="translate(-754.166 -2.491)" fill="#7e9a7e"/>
            <path id="Контур_131" data-name="Контур 131" d="M977.81,11.208c0,3-2.011,4.544-5.364,4.544h-5.885V2.715h3V7h3.315c3.147,0,4.935,1.4,4.935,4.209m-3.036.056c0-1.434-.931-2.03-2.5-2.03h-2.719v4.284h2.719c1.546,0,2.5-.782,2.5-2.254" transform="translate(-935.217 -2.491)" fill="#7e9a7e"/>
            <path id="Контур_132" data-name="Контур 132" d="M1121.707,2.714V15.751h-2.98V12.287h-2.756l-2.309,3.464h-3.185l2.719-3.93a4.281,4.281,0,0,1-2.738-4.246c0-3.036,2.179-4.861,5.625-4.861Zm-8.195,4.824c0,1.509.875,2.365,2.57,2.365h2.645V5.172h-2.57c-1.713,0-2.645.8-2.645,2.365" transform="translate(-1067.269 -2.491)" fill="#7e9a7e"/>
            <path id="Контур_133" data-name="Контур 133" d="M1298.664,2.715V15.752h-3.017V10.406h-5.922v5.345h-3.017V2.715h3.017v5.14h5.922V2.715Z" transform="translate(-1229.01 -2.491)" fill="#7e9a7e"/>
            <path id="Контур_134" data-name="Контур 134" d="M1460.692,6.742c0-3.93,3.017-6.742,7.077-6.742a6.73,6.73,0,0,1,5.364,2.309L1471.2,4.1a4.2,4.2,0,0,0-3.278-1.527,4,4,0,0,0-4.172,4.172,4,4,0,0,0,4.172,4.172,4.155,4.155,0,0,0,3.278-1.546l1.937,1.788a6.7,6.7,0,0,1-5.382,2.328c-4.041,0-7.059-2.812-7.059-6.742" transform="translate(-1388.673 0)" fill="#7e9a7e"/>
        </g>
        <g id="Сгруппировать_64" data-name="Сгруппировать 64" transform="translate(-1665.341 8345.111)">
            <path id="Контур_135" data-name="Контур 135" d="M587.132,229.845a2.561,2.561,0,0,1-.992-.958,2.805,2.805,0,0,1,0-2.747,2.554,2.554,0,0,1,1-.958,2.915,2.915,0,0,1,1.422-.348,2.969,2.969,0,0,1,1.123.206,2.3,2.3,0,0,1,.868.61l-.487.472a1.952,1.952,0,0,0-1.474-.621,2.135,2.135,0,0,0-1.055.262,1.9,1.9,0,0,0-.737.722,2.126,2.126,0,0,0,0,2.058,1.9,1.9,0,0,0,.737.722,2.134,2.134,0,0,0,1.055.262,1.956,1.956,0,0,0,1.474-.629l.487.472a2.328,2.328,0,0,1-.872.614,2.949,2.949,0,0,1-1.126.21,2.892,2.892,0,0,1-1.418-.348" transform="translate(-585.781 -224.834)" fill="#7e9a7e"/>
            <path id="Контур_136" data-name="Контур 136" d="M648.962,241.649H647.51v3.338h-.719v-3.338h-1.452v-.629h3.623Z" transform="translate(-640.436 -239.688)" fill="#7e9a7e"/>
            <path id="Контур_137" data-name="Контур 137" d="M701.4,240.819a1.832,1.832,0,0,1,.715.711,2.107,2.107,0,0,1,.258,1.055,2.128,2.128,0,0,1-.258,1.059,1.824,1.824,0,0,1-.715.715,2.085,2.085,0,0,1-1.033.255,1.839,1.839,0,0,1-.782-.165,1.627,1.627,0,0,1-.6-.479v2.051h-.719V240.6h.689v.629a1.526,1.526,0,0,1,.606-.5,1.914,1.914,0,0,1,.808-.168,2.086,2.086,0,0,1,1.033.254m-.408,2.99a1.269,1.269,0,0,0,.479-.494,1.6,1.6,0,0,0,0-1.46,1.244,1.244,0,0,0-.479-.49,1.363,1.363,0,0,0-.685-.172,1.325,1.325,0,0,0-.677.176,1.274,1.274,0,0,0-.479.49,1.461,1.461,0,0,0-.176.726,1.508,1.508,0,0,0,.172.73,1.232,1.232,0,0,0,.479.494,1.414,1.414,0,0,0,1.366,0" transform="translate(-689.001 -239.271)" fill="#7e9a7e"/>
            <path id="Контур_138" data-name="Контур 138" d="M757.366,244.352a1.9,1.9,0,0,1-.737-.722,2.185,2.185,0,0,1,0-2.088,1.873,1.873,0,0,1,.737-.719,2.309,2.309,0,0,1,2.122,0,1.881,1.881,0,0,1,.734.719,2.184,2.184,0,0,1,0,2.088,1.908,1.908,0,0,1-.734.722,2.279,2.279,0,0,1-2.122,0m1.748-.543a1.242,1.242,0,0,0,.475-.494,1.634,1.634,0,0,0,0-1.46,1.218,1.218,0,0,0-.475-.49,1.449,1.449,0,0,0-1.37,0,1.242,1.242,0,0,0-.479.49,1.6,1.6,0,0,0,0,1.46,1.267,1.267,0,0,0,.479.494,1.421,1.421,0,0,0,1.37,0" transform="translate(-742.321 -239.271)" fill="#7e9a7e"/>
            <path id="Контур_139" data-name="Контур 139" d="M819.1,241.02h.719v2.889l2.433-2.889h.651v3.967h-.719V242.1l-2.425,2.889H819.1Z" transform="translate(-799.898 -239.688)" fill="#7e9a7e"/>
            <path id="Контур_140" data-name="Контур 140" d="M877.739,241.649h-1.452v3.338h-.719v-3.338h-1.452v-.629h3.623Z" transform="translate(-850.381 -239.688)" fill="#7e9a7e"/>
            <path id="Контур_141" data-name="Контур 141" d="M924.428,242.825H921.21a1.246,1.246,0,0,0,.46.842,1.5,1.5,0,0,0,.977.318,1.472,1.472,0,0,0,1.145-.479l.4.464a1.737,1.737,0,0,1-.67.479,2.526,2.526,0,0,1-2.01-.094,1.841,1.841,0,0,1-.752-.722,2.071,2.071,0,0,1-.266-1.048,2.1,2.1,0,0,1,.258-1.04,1.85,1.85,0,0,1,.711-.722,2.026,2.026,0,0,1,1.022-.258,1.985,1.985,0,0,1,1.014.258,1.815,1.815,0,0,1,.7.722,2.2,2.2,0,0,1,.251,1.063,2.068,2.068,0,0,1-.015.217m-2.811-1.34a1.267,1.267,0,0,0-.408.823h2.545a1.277,1.277,0,0,0-.408-.82,1.34,1.34,0,0,0-1.729,0" transform="translate(-892.939 -239.271)" fill="#7e9a7e"/>
            <path id="Контур_142" data-name="Контур 142" d="M977.3,241.02v3.967h-.719v-3.338H974.87l-.045.883a9.42,9.42,0,0,1-.142,1.336,2.1,2.1,0,0,1-.344.857.783.783,0,0,1-.666.322,1.7,1.7,0,0,1-.442-.067l.045-.606a.8.8,0,0,0,.18.022.486.486,0,0,0,.449-.262,1.656,1.656,0,0,0,.195-.621q.045-.359.082-1.025l.067-1.467Z" transform="translate(-941.338 -239.688)" fill="#7e9a7e"/>
            <path id="Контур_143" data-name="Контур 143" d="M1042.5,242.712a1.179,1.179,0,0,1,.4.951,1.2,1.2,0,0,1-.43.992,1.886,1.886,0,0,1-1.231.341l-1.722-.008V241.02h.719v1.34l1.115.008a1.764,1.764,0,0,1,1.153.344m-.588,1.542a.723.723,0,0,0,.251-.6.66.66,0,0,0-.243-.569,1.289,1.289,0,0,0-.745-.187l-.943-.015v1.557l.943.008a1.125,1.125,0,0,0,.737-.195" transform="translate(-1002.168 -239.688)" fill="#7e9a7e"/>
            <path id="Контур_144" data-name="Контур 144" d="M1091.8,241.02h.719V242.7h2.26V241.02h.719v3.967h-.719v-1.662h-2.26v1.662h-.719Z" transform="translate(-1050.148 -239.688)" fill="#7e9a7e"/>
            <path id="Контур_145" data-name="Контур 145" d="M1152.646,240.969a1.56,1.56,0,0,1,.438,1.205v2.4h-.681v-.524a1.137,1.137,0,0,1-.513.423,1.957,1.957,0,0,1-.79.146,1.652,1.652,0,0,1-1.067-.322,1.106,1.106,0,0,1-.019-1.688,1.881,1.881,0,0,1,1.213-.318h1.138v-.142a.916.916,0,0,0-.27-.711,1.136,1.136,0,0,0-.793-.247,2.1,2.1,0,0,0-.689.116,1.771,1.771,0,0,0-.569.311l-.3-.539a2.172,2.172,0,0,1,.733-.378,3.073,3.073,0,0,1,.906-.131,1.794,1.794,0,0,1,1.261.4m-.715,2.908a1.049,1.049,0,0,0,.434-.52V242.8h-1.108q-.913,0-.913.614a.555.555,0,0,0,.232.472,1.06,1.06,0,0,0,.644.172,1.334,1.334,0,0,0,.711-.183" transform="translate(-1103.219 -239.271)" fill="#7e9a7e"/>
            <path id="Контур_146" data-name="Контур 146" d="M1206.709,241.02v3.967h-.644V243.73h-1.235l-.868,1.257h-.771l.965-1.355a1.315,1.315,0,0,1-.689-.445,1.383,1.383,0,0,1,.224-1.811,2.06,2.06,0,0,1,1.28-.356Zm-2.5,2a1.233,1.233,0,0,0,.752.191h1.1v-1.564h-1.07q-1.033,0-1.033.786a.691.691,0,0,0,.251.588" transform="translate(-1152.368 -239.688)" fill="#7e9a7e"/>
            <path id="Контур_147" data-name="Контур 147" d="M591.05,334.24h-.823v1.677h-.719V331.95h.719v1.677h.838l1.287-1.677h.771l-1.5,1.909,1.609,2.058h-.846Z" transform="translate(-589.202 -323.133)" fill="#7e9a7e"/>
            <path id="Контур_148" data-name="Контур 148" d="M638.8,335.283a1.9,1.9,0,0,1-.737-.722,2.184,2.184,0,0,1,0-2.088,1.872,1.872,0,0,1,.737-.719,2.309,2.309,0,0,1,2.122,0,1.882,1.882,0,0,1,.734.719,2.185,2.185,0,0,1,0,2.088,1.908,1.908,0,0,1-.734.722,2.279,2.279,0,0,1-2.122,0m1.748-.543a1.241,1.241,0,0,0,.475-.494,1.633,1.633,0,0,0,0-1.46,1.217,1.217,0,0,0-.475-.49,1.449,1.449,0,0,0-1.37,0,1.242,1.242,0,0,0-.479.49,1.6,1.6,0,0,0,0,1.46,1.267,1.267,0,0,0,.479.494,1.422,1.422,0,0,0,1.37,0" transform="translate(-633.512 -322.716)" fill="#7e9a7e"/>
            <path id="Контур_149" data-name="Контур 149" d="M705.108,331.95v3.967h-.651v-2.9l-1.482,2.448h-.314l-1.467-2.455v2.9h-.659V331.95h.741l1.557,2.68,1.6-2.68Z" transform="translate(-691.088 -323.133)" fill="#7e9a7e"/>
            <path id="Контур_150" data-name="Контур 150" d="M776.771,331.95v3.967h-.719v-3.338h-2.238v3.338H773.1V331.95Z" transform="translate(-757.677 -323.133)" fill="#7e9a7e"/>
            <path id="Контур_151" data-name="Контур 151" d="M833.575,331.9a1.561,1.561,0,0,1,.438,1.205v2.4h-.681v-.524a1.136,1.136,0,0,1-.513.423,1.956,1.956,0,0,1-.79.146,1.652,1.652,0,0,1-1.067-.322,1.106,1.106,0,0,1-.019-1.688,1.881,1.881,0,0,1,1.213-.318h1.138v-.142a.916.916,0,0,0-.27-.711,1.136,1.136,0,0,0-.793-.247,2.1,2.1,0,0,0-.689.116,1.775,1.775,0,0,0-.569.311l-.3-.539a2.172,2.172,0,0,1,.734-.378,3.072,3.072,0,0,1,.906-.131,1.794,1.794,0,0,1,1.261.4m-.715,2.908a1.05,1.05,0,0,0,.434-.52v-.554h-1.108q-.913,0-.913.614a.555.555,0,0,0,.232.472,1.06,1.06,0,0,0,.644.172,1.334,1.334,0,0,0,.711-.183" transform="translate(-810.413 -322.715)" fill="#7e9a7e"/>
            <path id="Контур_152" data-name="Контур 152" d="M888.211,331.95h.719v1.684h2.26V331.95h.719v3.967h-.719v-1.662h-2.26v1.662h-.719Z" transform="translate(-863.317 -323.133)" fill="#7e9a7e"/>
            <path id="Контур_153" data-name="Контур 153" d="M950.135,331.95h.719v2.889l2.433-2.889h.651v3.967h-.719v-2.889l-2.425,2.889h-.659Z" transform="translate(-920.143 -323.133)" fill="#7e9a7e"/>
            <path id="Контур_154" data-name="Контур 154" d="M1012.665,331.95v3.967h-.644V334.66h-1.235l-.868,1.257h-.771l.966-1.355a1.315,1.315,0,0,1-.689-.445,1.383,1.383,0,0,1,.224-1.811,2.06,2.06,0,0,1,1.28-.356Zm-2.5,2a1.233,1.233,0,0,0,.752.191h1.1v-1.564h-1.07q-1.033,0-1.033.786a.691.691,0,0,0,.251.588" transform="translate(-974.297 -323.133)" fill="#7e9a7e"/>
        </g>
        <g id="Сгруппировать_66" data-name="Сгруппировать 66" transform="translate(-1802.106 8338.306)">
            <path id="Контур_155" data-name="Контур 155" d="M271.3,0l-3.586,10.65,2.154,7.038h-4.526l-1.632,4.85h7.642l1.659,5.421h6.847Z" transform="translate(-244.77 0)" fill="#7e9a7e"/>
            <path id="Контур_156" data-name="Контур 156" d="M9.415,0,.571,26.266,0,27.96H7.133L16.548,0Z" transform="translate(0 0)" fill="#7e9a7e"/>
            <path id="Контур_157" data-name="Контур 157" d="M128.564,0l-9.415,27.96h7.133l5.421-16.1,1.155-3.429L135.7,0Z" transform="translate(-110.59 0)" fill="#7e9a7e"/>
        </g>
    </g>
</svg>
