<svg xmlns="http://www.w3.org/2000/svg" display="none">


    <symbol id="viber" viewBox="0 0 26.586 26.586">
        <path d="M8.983,23.925l.962.562A10.631,10.631,0,1,0,6.1,20.642l.561.962L5.792,24.8l3.19-.871Zm-6.977,4.66,1.8-6.6a13.287,13.287,0,1,1,4.8,4.8ZM10.5,9.056a4.5,4.5,0,0,1,.536-.005c.072.005.144.013.215.021a.67.67,0,0,1,.522.331q.594,1.348,1.154,2.712a.807.807,0,0,1-.124.714,5.822,5.822,0,0,1-.35.494c-.15.193-.473.546-.473.546a.426.426,0,0,0-.081.352,1.176,1.176,0,0,0,.136.273l.078.126a8.421,8.421,0,0,0,1.356,1.686c.16.154.315.312.483.46a7.989,7.989,0,0,0,2.087,1.329l.007,0c.113.049.17.076.335.146a1.911,1.911,0,0,0,.254.088.465.465,0,0,0,.488-.173,15.523,15.523,0,0,1,1.058-1.242v0a.641.641,0,0,1,.5-.169.688.688,0,0,1,.235.053c.706.323,1.861.827,1.861.827l.774.347a.448.448,0,0,1,.253.352,2.566,2.566,0,0,1-.017.5,3.7,3.7,0,0,1-.25.974,1.535,1.535,0,0,1-.279.4,3.161,3.161,0,0,1-.439.383q-.082.062-.166.12-.248.157-.509.292a2.645,2.645,0,0,1-1.107.306,6.852,6.852,0,0,1-.739.019c-.011,0-.755-.116-.755-.116a12.559,12.559,0,0,1-5.1-2.72c-.3-.265-.578-.549-.863-.832a12.641,12.641,0,0,1-2.619-3.645,4.613,4.613,0,0,1-.44-1.88A3.628,3.628,0,0,1,9.263,9.9a3.144,3.144,0,0,1,.347-.405,1.692,1.692,0,0,1,.391-.3,1.277,1.277,0,0,1,.493-.133Z"
              transform="translate(-2 -2)"/>
    </symbol>

    <symbol id="whatsapp" viewBox="0 0 27.045 29.522">
        <g>
            <path d="M6.536,25.047A8.233,8.233,0,0,1,2.4,22.406,9.592,9.592,0,0,1,.613,18.85,17.5,17.5,0,0,1,.02,14.528,32.256,32.256,0,0,1,.274,8.885,12.84,12.84,0,0,1,1.459,5a7.355,7.355,0,0,1,3.762-3.49A18.109,18.109,0,0,1,10.92.118,26.622,26.622,0,0,1,16.685.2a18.7,18.7,0,0,1,5.284,1.376,7.436,7.436,0,0,1,4.054,4.467,17.38,17.38,0,0,1,.987,5.346,29.47,29.47,0,0,1-.471,7.049,8.692,8.692,0,0,1-2.306,4.519A8.481,8.481,0,0,1,20.5,25.079a25.46,25.46,0,0,1-8.32.907.1.1,0,0,1-.024,0c-.675-.207-1.078.121-1.483.635-.662.84-1.4,1.625-2.119,2.414a1.237,1.237,0,0,1-.96.488.873.873,0,0,1-.857-.555,2.709,2.709,0,0,1-.19-.888c-.023-.918-.007-1.837-.007-2.756,0-.088,0-.175,0-.274m.806.638h-.03c0,.758-.005,1.515,0,2.273,0,.209-.052.479.195.577s.4-.128.532-.291c1.1-1.314,2.213-2.624,3.3-3.956a1.021,1.021,0,0,1,.955-.446,23.218,23.218,0,0,0,7.528-.864,6.3,6.3,0,0,0,3.307-2.1,8.035,8.035,0,0,0,1.621-4.2,29.692,29.692,0,0,0,.172-5.6A13.919,13.919,0,0,0,23.89,6.354a5.35,5.35,0,0,0-2.622-2.788,14.691,14.691,0,0,0-4.017-1.178,23.921,23.921,0,0,0-6.24-.19A14.726,14.726,0,0,0,6.322,3.366a6.017,6.017,0,0,0-2.6,2.094A9.431,9.431,0,0,0,2.236,9.781,28.614,28.614,0,0,0,2.226,16.7a9.164,9.164,0,0,0,.994,3.187,6.428,6.428,0,0,0,3.9,3.15.276.276,0,0,1,.228.323c-.01.774,0,1.548,0,2.321"
                  transform="translate(0 0)"/>
            <path d="M128.4,130.682a1.333,1.333,0,0,1-.466.929c-.185.155-.375.305-.559.461a.909.909,0,0,0-.3,1.041,7.09,7.09,0,0,0,3.57,4.277,6.659,6.659,0,0,0,.922.353.862.862,0,0,0,.967-.317c.139-.177.274-.358.411-.537a1.1,1.1,0,0,1,1.476-.348,12.339,12.339,0,0,1,2.727,2.024.885.885,0,0,1,.218,1.006,3.8,3.8,0,0,1-1.973,2.15,1.409,1.409,0,0,1-1.128-.008,19.556,19.556,0,0,1-6.993-4.541,16.879,16.879,0,0,1-3.091-4.673c-.347-.752-.668-1.516-.993-2.279a1.564,1.564,0,0,1,.133-1.417,4.048,4.048,0,0,1,1.813-1.683.935.935,0,0,1,1.215.274,14.575,14.575,0,0,1,1.8,2.6,5.253,5.253,0,0,1,.25.692"
                  transform="translate(-117.127 -120.86)"/>
            <path d="M276.106,117.156c0,.121,0,.241,0,.362,0,.28-.131.445-.359.449s-.356-.139-.365-.415a10.431,10.431,0,0,0-.32-2.362,6.369,6.369,0,0,0-5.5-4.8c-.279-.034-.562-.04-.842-.06s-.425-.156-.417-.395.154-.356.447-.354a7.177,7.177,0,0,1,7.13,5.951c.1.537.163,1.081.243,1.622l-.017,0"
                  transform="translate(-255.325 -104.279)"/>
            <path d="M286.646,154.483c0,.1,0,.21,0,.314a.345.345,0,0,1-.35.378.356.356,0,0,1-.361-.373c-.024-.321-.018-.647-.072-.963a4.105,4.105,0,0,0-3.721-3.559c-.152-.02-.3-.033-.455-.062a.344.344,0,0,1-.3-.419.34.34,0,0,1,.384-.319,4.92,4.92,0,0,1,4.822,4.376c.027.207.044.416.065.624h-.012"
                  transform="translate(-267.773 -142.25)"/>
            <path d="M293.182,191.07a2.378,2.378,0,0,1,2.364,2.179c.018.144.041.287.047.431.01.261-.125.428-.343.437s-.343-.137-.378-.389a5.274,5.274,0,0,0-.1-.666,1.624,1.624,0,0,0-1.633-1.253c-.268-.021-.395-.13-.407-.351-.014-.264.146-.4.454-.389"
                  transform="translate(-278.569 -181.828)"/>
        </g>
    </symbol>

    <symbol id="vk" viewBox="0 0 25.595 16">
        <g>
            <g>
                <path
                        d="M-1087.873,1064.755q0-2.656,0-5.31c0-.164.03-.224.211-.223q1.855.012,3.715,0c.164,0,.207.043.207.208-.006,1.97,0,3.94-.008,5.91,0,.187.048.212.22.181a5.819,5.819,0,0,0,2.81-1.448,10.094,10.094,0,0,0,2.992-4.626.267.267,0,0,1,.307-.227c1.233.009,2.464.008,3.7,0,.163,0,.2.029.156.2a12.084,12.084,0,0,1-5.419,7.671c-.04.025-.109.038-.108.09s.077.073.124.1a12.557,12.557,0,0,1,5.7,5.995,13.05,13.05,0,0,1,.651,1.751c.054.178,0,.193-.153.193q-2.082-.008-4.164,0a.2.2,0,0,1-.225-.159,8.508,8.508,0,0,0-2.824-4.063,7.178,7.178,0,0,0-3.566-1.484c-.155-.019-.2.016-.2.178.005,1.771,0,3.54.008,5.31,0,.169-.039.219-.215.219a16.322,16.322,0,0,1-5.168-.746,11.687,11.687,0,0,1-5.112-3.307,14.107,14.107,0,0,1-2.875-5.1,21.021,21.021,0,0,1-.883-3.976c-.112-.88-.173-1.767-.2-2.654-.005-.156.023-.217.2-.216q1.99.012,3.978,0c.164,0,.21.047.212.21a17.8,17.8,0,0,0,.757,5,9.894,9.894,0,0,0,2.539,4.349,6.027,6.027,0,0,0,2.431,1.464c.207.062.207.065.207-.146Z"
                        transform="translate(1098.196 -1059.221)"/>
            </g>
        </g>
    </symbol>

    <symbol id="instagram" viewBox="0 0 18.356 18.355">
        <g>
            <g>
                <path d="M-295.074-165.711c0-1.359,0-2.717,0-4.076a5.1,5.1,0,0,1,3.448-4.826,4.8,4.8,0,0,1,1.265-.256c.147-.009.3-.014.443-.014q4.08,0,8.16,0a4.9,4.9,0,0,1,3.079,1.077,5.024,5.024,0,0,1,1.83,2.862,4.6,4.6,0,0,1,.129,1.073c0,2.779.006,5.557,0,8.336a4.887,4.887,0,0,1-1.029,2.982,5.029,5.029,0,0,1-1.939,1.559,4.634,4.634,0,0,1-1.442.414,7.459,7.459,0,0,1-.8.046q-4.046,0-8.091,0a4.906,4.906,0,0,1-2.829-.888,5.029,5.029,0,0,1-2.027-2.807,4.741,4.741,0,0,1-.194-1.338Zm4.081.006a5.1,5.1,0,0,0,5.03,5.093A5.1,5.1,0,0,0-280.8-165.7a5.1,5.1,0,0,0-5.139-5.1A5.1,5.1,0,0,0-290.993-165.7Zm12.23-6.123a1.011,1.011,0,0,0-1.019-1.016,1.011,1.011,0,0,0-1.014,1.013,1.013,1.013,0,0,0,1.015,1.02A1.013,1.013,0,0,0-278.762-171.827Z"
                      transform="translate(295.075 174.885)"/>
                <path d="M107.872,231.366a3.286,3.286,0,1,1,3.284-3.2A3.29,3.29,0,0,1,107.872,231.366Z"
                      transform="translate(-98.693 -218.904)"/>
            </g>
        </g>
    </symbol>


    <symbol id="phone" viewBox="0 0 40 40">
        <path d="M0,0H40V40H0Z" fill="none"/>
        <path
                d="M15.025,17.51a19.939,19.939,0,0,0,7.465,7.465l1.67-2.338a1.889,1.889,0,0,1,2.444-.559,21.575,21.575,0,0,0,8.657,2.576A1.889,1.889,0,0,1,37,26.537v8.428a1.889,1.889,0,0,1-1.7,1.879A29.3,29.3,0,0,1,3.155,4.7,1.889,1.889,0,0,1,5.034,3h8.428a1.889,1.889,0,0,1,1.883,1.74A21.575,21.575,0,0,0,17.922,13.4a1.889,1.889,0,0,1-.559,2.444l-2.338,1.67Zm-4.764-1.241,3.589-2.563a25.33,25.33,0,0,1-2.072-6.928H6.8c-.011.314-.017.629-.017.944a25.5,25.5,0,0,0,25.5,25.5c.315,0,.631-.006.944-.019V28.222a25.33,25.33,0,0,1-6.928-2.072l-2.563,3.589a23.5,23.5,0,0,1-3-1.417l-.11-.062a23.717,23.717,0,0,1-8.882-8.882l-.062-.11a23.5,23.5,0,0,1-1.417-3Z"
                transform="translate(0 0)"/>
    </symbol>

    <symbol id="home" viewBox="0 0 40 40">
        <path d="M0,0H40V40H0Z" fill="none"/>
        <path
                d="M9.636,33.371H30.364V15.513L20,5.618l-10.364,9.9ZM32.091,37H7.909a1.772,1.772,0,0,1-1.727-1.814V18.857H1L18.838,1.824a1.667,1.667,0,0,1,2.325,0L39,18.857H33.818V35.186A1.772,1.772,0,0,1,32.091,37ZM12.227,22.485h3.455A4.431,4.431,0,0,0,20,27.021a4.431,4.431,0,0,0,4.318-4.536h3.455A7.976,7.976,0,0,1,20,30.65,7.976,7.976,0,0,1,12.227,22.485Z"/>
    </symbol>

    <symbol id="chat" viewBox="0 0 40 40">
        <path d="M0,0H40V40H0Z" fill="none"/>
        <path d="M2,20A18,18,0,1,1,20,38H2l5.272-5.272A17.944,17.944,0,0,1,2,20Zm8.69,14.4H20A14.4,14.4,0,1,0,9.817,30.183l2.545,2.545ZM12.8,21.8H27.2a7.2,7.2,0,1,1-14.4,0Z"
              transform="translate(0 0)"/>
    </symbol>

</svg>