<svg xmlns="http://www.w3.org/2000/svg" xmlns:xlink="http://www.w3.org/1999/xlink" width="373.033" height="82.632" viewBox="0 0 373.033 82.632">
    <defs>
        <clipPath id="clip-path">
            <rect id="Прямоугольник_11" data-name="Прямоугольник 11" width="373.033" height="82.632" fill="#fdc31d"/>
        </clipPath>
    </defs>
    <g id="Сгруппировать_22" data-name="Сгруппировать 22" clip-path="url(#clip-path)">
        <path id="Контур_67" data-name="Контур 67" d="M67.438,44.632l.022.005a1.567,1.567,0,0,0,.821-3.016L68.2,41.6l-.993-.223c-1.156-.261-1.534-.346-2.71-.523a78.2,78.2,0,0,0,4.825-19.27c.991-8.548-.62-14.572-4.932-18.422A13.522,13.522,0,0,0,55.294,0a37.218,37.218,0,0,0-9.358,1.364,58.7,58.7,0,0,0-30.35,18.493,35.537,35.537,0,0,0-2.576,3.362.947.947,0,0,0-.268.711,1.039,1.039,0,0,0,.676.908,1.053,1.053,0,0,0,1.138-.244l.039-.042A66.429,66.429,0,0,1,27.1,13.281,59.749,59.749,0,0,1,41.963,5.893l.024-.008a42.966,42.966,0,0,1,8.149-2.1c2.907-.513,6-.871,8.867-.027,5.533,1.734,7.414,8.121,7.33,13.519A62.8,62.8,0,0,1,63.251,34.51c-.668,2.088-1.384,4.075-2.13,5.916a91.937,91.937,0,0,0-29.593.988,77.759,77.759,0,0,0-10.9,2.973,1.076,1.076,0,0,0-.738,1.19,1.174,1.174,0,0,0,1.192.955h.116l.112-.03a101.915,101.915,0,0,1,37.937-3.278c.208.029.411.049.608.066-1.009,2.236-2.1,4.369-3.308,6.489a71.666,71.666,0,0,1-10.05,13.576,64.433,64.433,0,0,1-13.03,11.009C27.808,77.9,22.338,79.535,17.2,79.228A17.752,17.752,0,0,1,4.7,73.285l-.044-.048a9.547,9.547,0,0,1-1.967-2.783l-.012-.024a1.4,1.4,0,0,0-1.865-.6,1.349,1.349,0,0,0-.7,1.763C2.026,76.553,6.5,80.285,12.37,81.83a22.265,22.265,0,0,0,5.971.8A29.326,29.326,0,0,0,29.992,80c5.085-2.225,10.186-5.781,15.6-10.876a79.279,79.279,0,0,0,11.458-13.8,79.288,79.288,0,0,0,6.23-11.563,26.2,26.2,0,0,1,3.627.736Z" transform="translate(0 0.001)" fill="#fdc31d"/>
        <path id="Контур_68" data-name="Контур 68" d="M388.775,217.558a57.449,57.449,0,0,0-11.079,4.47c-1.385.674-2.817,1.372-4.22,2a38.949,38.949,0,0,1-7.576,2.531c-.807.134-1.6.257-2.383.32a16.914,16.914,0,0,0,1.309-1.283,12.931,12.931,0,0,0,2.761-4.03,3.5,3.5,0,0,0-1.939-4.474,5.072,5.072,0,0,0-3.654-.264,13.77,13.77,0,0,0-7.283,3.133q-.357.292-.683.586a1.181,1.181,0,0,0-.134.073c-2.475,1.5-5.138,2.829-7.647,4.041a38.289,38.289,0,0,1-8.016,2.7c-1.906.381-4.341.712-6.262-.123l-.024-.01a3.769,3.769,0,0,1-1.74-1.459l-.028-.039a7.455,7.455,0,0,1-.684-1.232,6.2,6.2,0,0,0-1.712-2.415l-.048-.034c-1.818-1.212-4.022-.32-5.633.33-.178.072-.352.142-.517.206-.321.123-.646.259-.973.4.525-.924,1.037-1.91,1.544-2.975a6.619,6.619,0,0,0,.78-3.716l-.01-.053a3.524,3.524,0,0,0-3.025-2.716,21.706,21.706,0,0,0-9.4.455,9.653,9.653,0,0,0,.218-1.165,1.2,1.2,0,0,0-.923-1.412,1.1,1.1,0,0,0-.874.194,1.163,1.163,0,0,0-.4.553,2.3,2.3,0,0,0-.33,1c-.152.442-.332.889-.507,1.324-.066.163-.13.323-.192.48a13.011,13.011,0,0,0-1.777.794,23.8,23.8,0,0,0-6.055,3.948,16.755,16.755,0,0,0-2.525,2.618c-.1.129-.208.258-.314.387a9.576,9.576,0,0,0-1.688,2.6,4.161,4.161,0,0,0,.141,3.881,2.683,2.683,0,0,0,2.509,1.061c2.073-.11,3.831-1.73,5.13-3.129a33.44,33.44,0,0,0,6.353-9.451,23.1,23.1,0,0,1,7.642-1.336l.381,0a5.8,5.8,0,0,1,2.57.33c.3.176.164.972-.34,1.981l-.016.034a33.041,33.041,0,0,1-4.257,7.128l-.045.061a1.62,1.62,0,0,0,.143,1.988,1.373,1.373,0,0,0,1.744.224,34.168,34.168,0,0,1,5.407-2.614c.191-.077.4-.169.625-.267,1.4-.615,2.613-1.069,3.161-.389a11.043,11.043,0,0,1,.722,1.376,9.5,9.5,0,0,0,1.185,2.056l.058.064a7.568,7.568,0,0,0,2.8,1.8,10.366,10.366,0,0,0,3.988.711,22.636,22.636,0,0,0,3.42-.3l.033-.006a37.7,37.7,0,0,0,8.216-2.646,41.121,41.121,0,0,0,3.962-2.014,3.956,3.956,0,0,0,.674,2.865,4.283,4.283,0,0,0,3.8,1.967,11.249,11.249,0,0,0,4.5-1.177c3.261.777,6.921-.024,9.431-.709a67.446,67.446,0,0,0,11.658-5.005,86.4,86.4,0,0,1,8.715-4.015,1.106,1.106,0,0,0,.669-.55,1.137,1.137,0,0,0,.09-.8,1.162,1.162,0,0,0-1.42-.858m-35.083,9.493a2.031,2.031,0,0,1,.066-1.472,5.761,5.761,0,0,1,.894-1.522,4.919,4.919,0,0,0,1.567,3.532,3.976,3.976,0,0,1-1.223.118,2.071,2.071,0,0,1-1.3-.656m5.4-.9c-.11-.064-.223-.13-.343-.193a2.475,2.475,0,0,1-1.19-1.952l0-.067a2.821,2.821,0,0,1,1.083-1.882l.018-.019c1.4-1.483,3.762-2.837,5.4-2.428l.068.014a.93.93,0,0,1,.655.4l.03.078c.138.31-.082.731-.407,1.291l-.072.125a19.323,19.323,0,0,1-2.464,2.878,11.82,11.82,0,0,1-2.562,1.882c-.072-.039-.147-.083-.219-.125m-54.1-6.435a36.84,36.84,0,0,1-2.581,3.568,16.248,16.248,0,0,1-3.458,3.307l-.113.075a3.339,3.339,0,0,1-1.141.582,2.47,2.47,0,0,1,.055-.3,8.108,8.108,0,0,1,1.193-1.916l.085-.113a23.449,23.449,0,0,1,1.98-2.15,19.787,19.787,0,0,1,3.98-3.055" transform="translate(-230.514 -165.338)" fill="#fdc31d"/>
        <path id="Контур_69" data-name="Контур 69" d="M1001.523,218.417a1.161,1.161,0,0,0-1.42-.858,57.47,57.47,0,0,0-11.079,4.47c-1.385.674-2.817,1.372-4.22,2a38.951,38.951,0,0,1-7.576,2.531c-.807.134-1.6.257-2.384.32a16.867,16.867,0,0,0,1.309-1.283,12.933,12.933,0,0,0,2.761-4.03,3.5,3.5,0,0,0-1.94-4.474,5.072,5.072,0,0,0-3.654-.264,13.774,13.774,0,0,0-7.284,3.133q-.35.287-.672.576a1.231,1.231,0,0,0-.146.083c-2.475,1.5-5.137,2.829-7.647,4.041a38.288,38.288,0,0,1-8.016,2.7c-1.906.381-4.341.712-6.262-.123l-.024-.01a3.771,3.771,0,0,1-1.74-1.459l-.028-.04a7.472,7.472,0,0,1-.684-1.232,6.194,6.194,0,0,0-1.712-2.415l-.048-.034c-1.818-1.212-4.023-.321-5.633.33-.178.072-.352.142-.517.206-.321.124-.646.259-.974.4.525-.924,1.037-1.91,1.544-2.975a6.614,6.614,0,0,0,.78-3.716l-.01-.052a3.525,3.525,0,0,0-3.025-2.716,21.708,21.708,0,0,0-9.4.455,9.654,9.654,0,0,0,.218-1.165,1.2,1.2,0,0,0-.924-1.412,1.1,1.1,0,0,0-.873.195,1.163,1.163,0,0,0-.4.552,2.294,2.294,0,0,0-.331,1c-.152.442-.332.89-.508,1.325-.065.162-.13.322-.191.479a12.989,12.989,0,0,0-1.777.794,23.8,23.8,0,0,0-6.055,3.948,13.267,13.267,0,0,0-1.216,1.12c-.816.419-1.6.913-2.364,1.393-.557.352-1.133.716-1.707,1.04-1.611.8-3.041,1.463-4.371,2.01a29.588,29.588,0,0,1-8.644,1.814c-1.707.081-3.83.183-5.44-.614a1.786,1.786,0,0,1-.969-1.383c-.111-.941.3-1.786,1.414-2.909a14.23,14.23,0,0,1,4.484-2.49,4.589,4.589,0,0,1,2.354-.268l.09.022a1.031,1.031,0,0,1,.234.071,1.539,1.539,0,0,1-.4.946l-.053.068-.039.077a1.091,1.091,0,0,0,.171,1.265,1,1,0,0,0,1.177.172l.126-.063.1-.1a3.962,3.962,0,0,0,1.315-3.1A2.222,2.222,0,0,0,896,217.107c-1.5-.832-3.608-.729-6.27.307l-.034.014c-3.045,1.332-4.718,2.854-5.606,4.276a27.3,27.3,0,0,0-3.495,1.813c-.6.348-1.164.677-1.735.978a36.777,36.777,0,0,1-5.112,1.993,20.309,20.309,0,0,1-8.184.6,3.719,3.719,0,0,1-2.4-1.1,1.849,1.849,0,0,1-.337-1.382,1.154,1.154,0,0,0,.244-.309,8.084,8.084,0,0,0,4.036.594,9.388,9.388,0,0,0,5.6-2.461,4.056,4.056,0,0,0,1.282-3.788,2.783,2.783,0,0,0-2.216-1.981l-.031-.007c-2.129-.41-4.585.2-7.3,1.8l-.022.013a10.174,10.174,0,0,0-4.245,4.372,30.931,30.931,0,0,0-6.651,2.455c-.672.336-1.354.688-2.014,1.029a57.7,57.7,0,0,1-6.1,2.855,26.227,26.227,0,0,1-3.691,1.032,6.378,6.378,0,0,1-3.335-.116c-2.046-.909-1.066-5.11-.849-5.943l.011-.049a8.563,8.563,0,0,1,.76-2.076,32.867,32.867,0,0,0,4.495-5.96,1.447,1.447,0,0,0-2.236-1.79,18.144,18.144,0,0,0-4.6,5.85,40.247,40.247,0,0,1-6.094,5.132l-.1.07c-1.792,1.2-3.823,2.55-5.836,2.55a1.688,1.688,0,0,1-1.665-.991,5.421,5.421,0,0,1,.351-3.037,28,28,0,0,1,3.268-6.631c.371-.467.735-1.013,1.091-1.547l.032-.051a1.367,1.367,0,0,0-.469-1.872,1.509,1.509,0,0,0-2.067.4l-.016.023c-.165.247-.353.5-.551.763s-.409.546-.6.829a61.044,61.044,0,0,1-8.79,9.664c-1.73,1.557-3.6,3.077-5.752,3.077a2.524,2.524,0,0,1-1.843-.684l-.039-.042a1.636,1.636,0,0,1-.2-1.584,4.64,4.64,0,0,1,1.091-1.912,1.079,1.079,0,0,0,.164-1.309,1.289,1.289,0,0,0-1.414-.6,3.689,3.689,0,0,0-1.837,1.3,5.483,5.483,0,0,0-1.046,4.146,4.228,4.228,0,0,0,1.9,2.927c2.434,1.522,5.817.639,8.083-.906a36.94,36.94,0,0,0,5.771-5c-.414,2.629.377,4.584,2.3,5.513,2.768,1.278,5.806-.308,7.816-1.357l.032-.018a37.418,37.418,0,0,0,4.693-3.242,8.094,8.094,0,0,0,1.016,5.379,5.4,5.4,0,0,0,4.785,2.245,15.468,15.468,0,0,0,3.361-.452,36.752,36.752,0,0,0,9.045-3.647c.464-.245.93-.5,1.4-.748a49.51,49.51,0,0,1,5.99-2.882,4.567,4.567,0,0,0,1.645,2.911,9.368,9.368,0,0,0,6.07,1.762,25.383,25.383,0,0,0,3.227-.234,23.612,23.612,0,0,0,7.488-2.033,21.913,21.913,0,0,0,3.594-1.846l.381-.233c.318-.194.639-.391.958-.6a5.271,5.271,0,0,0,.112.662c.608,2.432,2.977,3.908,6.5,4.048q.943.08,1.916.08a26.953,26.953,0,0,0,7.738-1.18,31.109,31.109,0,0,0,6.3-2.373c.121-.058.239-.116.357-.174a3.689,3.689,0,0,0,.474,2.764,2.683,2.683,0,0,0,2.509,1.062c2.073-.11,3.832-1.731,5.13-3.129a33.442,33.442,0,0,0,6.353-9.451,23.1,23.1,0,0,1,7.642-1.336l.382,0a5.808,5.808,0,0,1,2.57.33c.3.175.164.972-.34,1.98l-.016.034a33.041,33.041,0,0,1-4.257,7.128l-.045.061a1.62,1.62,0,0,0,.143,1.987,1.373,1.373,0,0,0,1.745.224,34.14,34.14,0,0,1,5.407-2.614c.191-.076.4-.169.625-.267,1.4-.616,2.612-1.069,3.161-.39a11.019,11.019,0,0,1,.722,1.376,9.519,9.519,0,0,0,1.185,2.056l.058.064a7.572,7.572,0,0,0,2.8,1.8,10.364,10.364,0,0,0,3.988.711,22.612,22.612,0,0,0,3.42-.3l.033-.006a37.73,37.73,0,0,0,8.216-2.646,41.084,41.084,0,0,0,3.962-2.014,3.957,3.957,0,0,0,.674,2.865,4.284,4.284,0,0,0,3.8,1.967,11.247,11.247,0,0,0,4.5-1.177c3.261.777,6.92-.024,9.431-.709a67.437,67.437,0,0,0,11.658-5.005,86.435,86.435,0,0,1,8.715-4.015,1.107,1.107,0,0,0,.669-.55,1.139,1.139,0,0,0,.09-.8m-36.5,8.635a2.03,2.03,0,0,1,.066-1.472,5.774,5.774,0,0,1,.894-1.522,4.917,4.917,0,0,0,1.567,3.532,3.938,3.938,0,0,1-1.223.118,2.071,2.071,0,0,1-1.3-.656m5.4-.9c-.11-.064-.223-.13-.343-.193a2.475,2.475,0,0,1-1.19-1.952l0-.067a2.823,2.823,0,0,1,1.083-1.882l.018-.019c1.4-1.482,3.761-2.84,5.4-2.428l.069.014a.928.928,0,0,1,.654.4l.031.078c.138.311-.082.731-.407,1.292l-.072.125a19.345,19.345,0,0,1-2.463,2.878,11.826,11.826,0,0,1-2.562,1.882c-.072-.039-.148-.083-.219-.125m-61.341.8a8.109,8.109,0,0,1,1.193-1.916l.085-.113a23.337,23.337,0,0,1,1.98-2.149,19.784,19.784,0,0,1,3.979-3.056,36.855,36.855,0,0,1-2.581,3.568,16.242,16.242,0,0,1-3.458,3.307l-.113.075a3.342,3.342,0,0,1-1.141.582,2.443,2.443,0,0,1,.055-.3m-39.022-7.314a5.135,5.135,0,0,1,1.006.06c-.007.021-.015.044-.025.068-.548,1.208-2.324,2.088-3.8,2.334l-.056.011a7.465,7.465,0,0,1-2.766.113,13,13,0,0,1,3.215-1.942,7.214,7.214,0,0,1,2.427-.645" transform="translate(-628.525 -165.338)" fill="#fdc31d"/>
    </g>
</svg>
