<svg xmlns="http://www.w3.org/2000/svg" xmlns:xlink="http://www.w3.org/1999/xlink" width="314.76" height="167.895" viewBox="0 0 314.76 167.895">
    <defs>
        <clipPath id="clip-path">
            <rect id="Прямоугольник_10" data-name="Прямоугольник 10" width="213.374" height="69.649" fill="#fdc31d"/>
        </clipPath>
    </defs>
    <g id="Сгруппировать_80" data-name="Сгруппировать 80" transform="translate(-519.822 -335.553)">
        <path id="Контур_165" data-name="Контур 165" d="M-147.77-8.471-158.562-30.1H-154l8.385,17.2,7.181-17.2h4.386L-147.081,0h-4.386Zm31.6,8.815a9.055,9.055,0,0,1-6.6-2.451q-2.516-2.451-2.73-7.095h-4.042V0h-3.87V-21.5h3.87v8.772h4.085a10,10,0,0,1,2.838-6.751,8.991,8.991,0,0,1,6.45-2.365,9.063,9.063,0,0,1,6.858,2.666q2.558,2.666,2.559,7.611v1.634a13.232,13.232,0,0,1-.667,4.365,8.812,8.812,0,0,1-1.913,3.225,8.249,8.249,0,0,1-2.989,2A10.388,10.388,0,0,1-116.165.344Zm0-3.7a5.007,5.007,0,0,0,3.891-1.634,7.156,7.156,0,0,0,1.484-4.945v-1.634a7.1,7.1,0,0,0-1.505-4.924,4.993,4.993,0,0,0-3.87-1.656,4.909,4.909,0,0,0-3.806,1.634,7.156,7.156,0,0,0-1.483,4.945v1.634A7.17,7.17,0,0,0-119.97-5.01,4.879,4.879,0,0,0-116.165-3.354ZM-104.812-21.5h17.63v3.526h-6.88V0h-3.87V-17.974h-6.88ZM-68.478-9.2h-10.75V0H-83.1V-21.5h3.87v8.772h10.75V-21.5h3.87V0h-3.87Zm10.32-12.3h3.87v6.88H-50.2q4.859,0,7.052,1.957A6.809,6.809,0,0,1-40.958-7.31,6.794,6.794,0,0,1-43.15-1.935Q-45.344,0-50.2,0h-7.955Zm20.21,0h3.87V0h-3.87Zm-16.34,10.406v7.568h4.3q2.838,0,3.956-.968A3.522,3.522,0,0,0-44.913-7.31a3.522,3.522,0,0,0-1.118-2.817q-1.118-.967-3.956-.967Zm41.28-5.805-2.365,4.429L-22.639,0h-4.988V-21.5h3.87V-4.6l2.365-4.429,7.267-12.47h4.988V0h-3.87Zm-5.375-7.267a6.034,6.034,0,0,1-4.429-1.57A5.853,5.853,0,0,1-24.4-30.1h3.354a3.638,3.638,0,0,0,.709,2.473,2.487,2.487,0,0,0,1.956.8,2.608,2.608,0,0,0,2.021-.8A3.564,3.564,0,0,0-15.63-30.1h3.268a5.853,5.853,0,0,1-1.591,4.365A6.034,6.034,0,0,1-18.382-24.166ZM14.9-9.417H11.932V0H8.062V-21.5h3.87v8.557h3.01L20.7-21.5h4.558L18.124-11.266,26.122,0h-4.73ZM29.993-21.5h8.17q4.343,0,6.256,1.634a5.426,5.426,0,0,1,1.914,4.343,4.818,4.818,0,0,1-.645,2.451,5.184,5.184,0,0,1-2.021,1.892,5.554,5.554,0,0,1,2.666,2.042,5.182,5.182,0,0,1,.86,2.9,5.735,5.735,0,0,1-1.914,4.579Q43.366,0,39.023,0h-9.03Zm3.87,12.212v5.762h5.16a5.163,5.163,0,0,0,3.225-.753,2.667,2.667,0,0,0,.9-2.172,2.553,2.553,0,0,0-.9-2.107,5.281,5.281,0,0,0-3.225-.731Zm0-8.686v5.332h4.3a5.4,5.4,0,0,0,3.246-.709,2.374,2.374,0,0,0,.882-1.957,2.374,2.374,0,0,0-.882-1.956,5.4,5.4,0,0,0-3.246-.71ZM57.728.344a7.09,7.09,0,0,1-5.117-1.7A6.174,6.174,0,0,1,50.848-6.02a7.988,7.988,0,0,1,.516-2.945,5.23,5.23,0,0,1,1.655-2.214,7.921,7.921,0,0,1,2.924-1.376,17.28,17.28,0,0,1,4.365-.473h4.3V-14.62a3.647,3.647,0,0,0-1.054-2.8,4.607,4.607,0,0,0-3.246-.989,4.887,4.887,0,0,0-3.16.817,3.218,3.218,0,0,0-1.139,2.107h-4.3a6.327,6.327,0,0,1,2.257-4.558q2.085-1.806,6.342-1.806,4.042,0,6.106,1.935a6.9,6.9,0,0,1,2.064,5.289V0h-3.01l-.473-3.526a8.054,8.054,0,0,1-3.031,2.86A8.767,8.767,0,0,1,57.728.344Zm.43-3.44a6.944,6.944,0,0,0,2.6-.473A6.561,6.561,0,0,0,62.8-4.838a5.585,5.585,0,0,0,1.333-1.871,5.6,5.6,0,0,0,.473-2.279v-.774h-4.3a6.681,6.681,0,0,0-4.193,1.01A3.263,3.263,0,0,0,54.89-6.106a2.882,2.882,0,0,0,.86,2.193A3.357,3.357,0,0,0,58.158-3.1ZM85.118.344a7.949,7.949,0,0,1-6.536-2.795V8.6h-3.87V-21.5h3.01l.387,3.1a7.049,7.049,0,0,1,2.924-2.58,9.49,9.49,0,0,1,4.128-.86,8.545,8.545,0,0,1,3.376.667A7.172,7.172,0,0,1,91.225-19.2a9.669,9.669,0,0,1,1.763,3.225,13.787,13.787,0,0,1,.645,4.408v1.634a13.787,13.787,0,0,1-.645,4.408A9.457,9.457,0,0,1,91.2-2.3,7.36,7.36,0,0,1,88.494-.322,8.545,8.545,0,0,1,85.118.344Zm-1.032-3.7a5.216,5.216,0,0,0,4.042-1.591Q89.59-6.536,89.59-9.933v-1.634a7.214,7.214,0,0,0-1.462-4.967,5.18,5.18,0,0,0-4.042-1.612,5.177,5.177,0,0,0-3.87,1.591,6.747,6.747,0,0,0-1.634,4.687v1.935a7,7,0,0,0,1.548,4.881A5.114,5.114,0,0,0,84.087-3.354ZM95.568-21.5H113.2v3.526h-6.88V0h-3.87V-17.974h-6.88ZM122.227.344a7.09,7.09,0,0,1-5.117-1.7,6.174,6.174,0,0,1-1.763-4.665,7.988,7.988,0,0,1,.516-2.945,5.23,5.23,0,0,1,1.656-2.214,7.921,7.921,0,0,1,2.924-1.376,17.28,17.28,0,0,1,4.365-.473h4.3V-14.62a3.647,3.647,0,0,0-1.053-2.8,4.607,4.607,0,0,0-3.246-.989,4.887,4.887,0,0,0-3.16.817,3.218,3.218,0,0,0-1.14,2.107h-4.3a6.327,6.327,0,0,1,2.257-4.558q2.085-1.806,6.342-1.806,4.042,0,6.106,1.935a6.9,6.9,0,0,1,2.064,5.289V0h-3.01l-.473-3.526a8.054,8.054,0,0,1-3.032,2.86A8.767,8.767,0,0,1,122.227.344Zm.43-3.44a6.944,6.944,0,0,0,2.6-.473A6.561,6.561,0,0,0,127.3-4.838a5.586,5.586,0,0,0,1.333-1.871,5.6,5.6,0,0,0,.473-2.279v-.774h-4.3a6.681,6.681,0,0,0-4.192,1.01,3.263,3.263,0,0,0-1.226,2.644,2.882,2.882,0,0,0,.86,2.193A3.357,3.357,0,0,0,122.657-3.1Zm13.975-.258h.645a2.676,2.676,0,0,0,1.312-.344,2.927,2.927,0,0,0,1.1-1.2,8.016,8.016,0,0,0,.753-2.322,20.238,20.238,0,0,0,.279-3.7V-21.5H156.2V0h-3.87V-17.974h-7.74v7.052a23.289,23.289,0,0,1-.516,5.332,10.04,10.04,0,0,1-1.462,3.483,5.277,5.277,0,0,1-2.3,1.892,7.878,7.878,0,0,1-3.032.559h-.645Z" transform="translate(678.384 436.764)" fill="#fff"/>
        <g id="Сгруппировать_16" data-name="Сгруппировать 16" transform="translate(651.659 335.553)">
            <path id="Контур_1" data-name="Контур 1" d="M64.6,25.242c0,17.519-11.8,20.151-29.316,20.151C26.119,45.393,14,53.329,14,53.329A31.722,31.722,0,1,1,68.418,25.959c.342,1.868-3.813-2.685-3.813-.717" transform="translate(-0.826)" fill="#fff7ba"/>
            <path id="Контур_2" data-name="Контур 2" d="M79.556,17.971h0v0" transform="translate(-11.948 -2.699)" fill="#9ab600"/>
            <path id="Контур_3" data-name="Контур 3" d="M80.016,20.919c-.1-.683-.2-1.325-.3-1.913.1.595.2,1.257.3,1.945l0-.032" transform="translate(-11.972 -2.854)" fill="#9ab600"/>
            <path id="Контур_4" data-name="Контур 4" d="M79.695,18.851c-.05-.314-.094-.594-.138-.874.042.274.088.567.138.874" transform="translate(-11.948 -2.7)" fill="#9ab600"/>
            <path id="Контур_5" data-name="Контур 5" d="M79.066,17.912c-.024-.113-.06-.22-.085-.332-1.461.693-2.593,3.075-2.682,5.955-.094,3.034,1,5.6,2.535,6.232a26.521,26.521,0,0,0,.8-6.378c0-.895-.048-1.779-.134-2.651-.1-.688-.2-1.35-.3-1.945-.049-.308-.1-.6-.138-.874v-.005" transform="translate(-11.458 -2.64)" fill="#9ab600"/>
            <path id="Контур_6" data-name="Контур 6" d="M79.066,17.912c-.024-.113-.06-.22-.085-.332-1.461.693-2.593,3.075-2.682,5.955-.094,3.034,1,5.6,2.535,6.232a26.521,26.521,0,0,0,.8-6.378c0-.895-.048-1.779-.134-2.651-.1-.688-.2-1.35-.3-1.945-.049-.308-.1-.6-.138-.874v-.005" transform="translate(-11.458 -2.64)" fill="#c46c00"/>
            <path id="Контур_7" data-name="Контур 7" d="M76.662,16.521c-.1-.453-.242-.889-.365-1.333l.054.014,1.368-3.557H75.081l-.008.019a.174.174,0,0,1-.008-.019l-.595,0c-6.538-4.056-9.251,4.168-9.5,5.7-.619,4.808-4.109,4.375-4.109,4.375h0a59.78,59.78,0,0,1,15.364,8.136c.111-.377.2-.763.295-1.147-1.538-.632-2.629-3.2-2.536-6.232.09-2.879,1.222-5.262,2.682-5.956" transform="translate(-9.14 -1.582)" fill="#f48300"/>
            <path id="Контур_8" data-name="Контур 8" d="M43.556,48.914C8.793,53.8,0,73.419,0,73.419,14.292,54.356,35.655,54.634,39.282,54.581a7.756,7.756,0,0,0,4.274-5.667" transform="translate(0 -7.346)" fill="#fdc31d"/>
            <path id="Контур_9" data-name="Контур 9" d="M61.7,31.283l-.018-.009a36.318,36.318,0,0,1,8.232.109l0-.007a59.827,59.827,0,0,0-15.364-8.136,41.974,41.974,0,0,0-21.385-1.982A32.157,32.157,0,0,0,18.882,31.04c.01.035.018.071.027.105,1.167.059,11.535.677,19.706,4.331-.218-.1-.432-.2-.662-.305A82.574,82.574,0,0,1,61.7,31.283" transform="translate(-2.836 -3.101)" fill="#c46c00"/>
            <path id="Контур_10" data-name="Контур 10" d="M78.793,33.766h0c.009-.025.015-.052.023-.078Z" transform="translate(-11.833 -5.059)" fill="#c46c00"/>
            <path id="Контур_11" data-name="Контур 11" d="M73.164,33.662c.075-.253.123-.433.123-.433a49.284,49.284,0,0,0-8.234-.1l-.01.013a82.65,82.65,0,0,0-23.72,3.885c.23.1.444.2.663.305,6.288,2.922,8.126,6.337,7.772,9.23a7.607,7.607,0,0,1-3.669,5.284q-.274.171-.555.316c.331.028.669.035,1,.051a46.9,46.9,0,0,0,5.289-.468c.051-.008.1-.018.15-.025a35.728,35.728,0,0,0,5.554-1.3A26.612,26.612,0,0,0,72.768,34.726h.042c.132-.349.247-.711.332-.993.008-.024.019-.047.026-.071h-.005" transform="translate(-6.206 -4.955)" fill="#f48300"/>
            <path id="Контур_12" data-name="Контур 12" d="M9.878,43.08S20.861,13.83,46.4,21.092c5.209,1.834,15.549,9.323,18.75,17.483C63.5,38.094,37.54,19.951,9.878,43.08" transform="translate(-1.483 -2.994)" fill="#fdc31d"/>
        </g>
        <g id="Сгруппировать_20" data-name="Сгруппировать 20" transform="translate(572.923 433.798)">
            <g id="Сгруппировать_17" data-name="Сгруппировать 17" clip-path="url(#clip-path)">
                <path id="Контур_62" data-name="Контур 62" d="M53.647,15.232a15.519,15.519,0,0,0-6.233-9.32A22.09,22.09,0,0,0,35.748,1.681a4.632,4.632,0,0,0,.528-.692.613.613,0,0,0,.077-.6A.641.641,0,0,0,35.764,0h-.131l-.117.059a8.9,8.9,0,0,0-1.449.973c-.165.127-.335.259-.5.382l-.122.112A53.579,53.579,0,0,0,22.016,2.568C12.915,4.332,6.1,7.837,1.746,12.987l-.016.02c-.52.676-1.074,1.407-1.613,2.247a.673.673,0,0,0-.046.679.8.8,0,0,0,.657.424.717.717,0,0,0,.65-.312A23.632,23.632,0,0,1,9.407,8.861,38.091,38.091,0,0,1,19.695,5.017,54.835,54.835,0,0,1,31.256,3.451c-1.019.944-2.079,2-3.227,3.2a75.017,75.017,0,0,0-6.359,7.733,79.21,79.21,0,0,0-9.446,17.631l-.005.014c-.618,1.74-1.256,3.54-1.772,5.374A34.645,34.645,0,0,0,9.18,42.938a.839.839,0,0,0,.657.945.918.918,0,0,0,1.1-.577l.007-.023c.23-.806.434-1.634.631-2.436s.4-1.61.618-2.39c.445-1.5.9-3.052,1.47-4.581a66.536,66.536,0,0,1,3.893-9.026A72.725,72.725,0,0,1,28.614,8.774C29.678,7.609,31,6.159,32.333,4.884c.288-.259.564-.521.831-.774.21-.2.426-.4.646-.606A22.694,22.694,0,0,1,44.131,6.041a15.7,15.7,0,0,1,7.033,7.567c1.344,3.361,1.005,7.546-.953,11.778-2.974,6.289-8.523,11.869-16.493,16.585a77.4,77.4,0,0,1-24.664,9.2l-.014,0c-.864.192-2,.436-3.088.618a.883.883,0,0,0-.76.961.969.969,0,0,0,.956.939h.027l.027,0a65.446,65.446,0,0,0,13.652-2.925,74.88,74.88,0,0,0,12.766-5.61C41.136,40.458,47.271,34.8,50.856,28.339c2.67-4.708,3.608-9.121,2.79-13.107" transform="translate(0)" fill="#fdc31d"/>
                <path id="Контур_63" data-name="Контур 63" d="M409.155,199.112l-.042-.019a4.181,4.181,0,0,0-2.248-.029l-.014,0a5.865,5.865,0,0,0-3.51,2.149l-.026.04a2.486,2.486,0,0,0-.275,2.23,4.711,4.711,0,0,0,1.1,1.676l.03.034c-.668.534-1.4,1.039-2.112,1.511l-.043.029c-.727.485-1.823,1.215-2.559.945-.452-.218-.384-.8-.351-.989a1.4,1.4,0,0,1,.18-.454c.381-.252.76-.509,1.133-.778l.008-.006a.784.784,0,0,0-.767-1.357l-.017.007c-1.1.483-2.17,1.018-3.21,1.536a34.112,34.112,0,0,1-6.642,2.752,8.43,8.43,0,0,1-3.4.338,2.14,2.14,0,0,1-1.832-2.185,8.768,8.768,0,0,1,1.661-4.967l.042-.071a1.969,1.969,0,0,1,.351-.481l.032-.032.027-.037a.978.978,0,0,0-.249-1.346.964.964,0,0,0-1.363.094l-.134.165v.051a36.11,36.11,0,0,1-5.269,5.925,14.053,14.053,0,0,1-2.993,2.073l-.125.054a3.361,3.361,0,0,1-2.239.438c-.638-.228-.48-1.063-.442-1.228a3.964,3.964,0,0,1,1.06-1.623.629.629,0,0,0,.051-.8.64.64,0,0,0-.82-.188l-.045.022-.04.03a2.2,2.2,0,0,1-.246.145,2.7,2.7,0,0,0-.56.371,2.3,2.3,0,0,0-.777.98,3.04,3.04,0,0,0-.32,2.522l.012.034c.492,1.291,1.9,1.919,3.579,1.6l.014,0a11.043,11.043,0,0,0,3.78-1.849,20.682,20.682,0,0,0,3.091-2.645c-.166,2.068.584,3.658,2.075,4.386a4.979,4.979,0,0,0,2.486.581,11.568,11.568,0,0,0,1.889-.183,19.371,19.371,0,0,0,4.679-1.4,33.274,33.274,0,0,0,3.6-1.752c0,.051,0,.1.008.152l.01.064a2.522,2.522,0,0,0,2.889,1.857,8.946,8.946,0,0,0,3.809-1.9l.017-.012c.248-.165.5-.347.751-.539a4.568,4.568,0,0,1-.8,2.17c-.334.519-.677,1-1.009,1.469-.172.242-.344.484-.516.733l-.011.016c-.506.787-1.03,1.6-1.493,2.412l-.015.027a.752.752,0,0,0,.289,1,.728.728,0,0,0,.367.1.7.7,0,0,0,.557-.276c1.018-1.147,1.836-2.147,2.579-3.156l.212-.3a9.109,9.109,0,0,0,1.635-3.07,4.957,4.957,0,0,0-.006-2.634c.26-.237.517-.494.769-.746l.012-.012a11.669,11.669,0,0,0,2.443-3.589l.01-.027a1.569,1.569,0,0,0-.733-2.036m-1.674,1.894a3.724,3.724,0,0,1,.375-.062,6.148,6.148,0,0,1-.7,1.11l-.013.018a17.89,17.89,0,0,1-1.5,1.817l-.028-.033c-.7-.825-.876-1.155-.579-1.6a3.768,3.768,0,0,1,2.423-1.251Z" transform="translate(-320.395 -171.314)" fill="#fdc31d"/>
                <path id="Контур_64" data-name="Контур 64" d="M768.508,194.169a.994.994,0,0,0,.087-1.034.919.919,0,0,0-.068-.116l.432-.536-.643.322a.826.826,0,0,0-.478-.15c-1.565,0-2.835,1.144-3.856,2.063l-.267.24a30.043,30.043,0,0,0-3.245,3.42,26.014,26.014,0,0,0-2.5,3.731c-.412.319-.822.628-1.239.937.1-.211.2-.423.307-.644a18.126,18.126,0,0,0,.806-1.84,3.547,3.547,0,0,0,.114-2.369l-.009-.024a2.514,2.514,0,0,0-2.24-1.421,4.785,4.785,0,0,0-2.159.452,2.931,2.931,0,0,0-.652-1.369,1.986,1.986,0,0,0-1.391-.674,4.9,4.9,0,0,0-2.17.433,17.183,17.183,0,0,0-1.812.818l-.037.021a24.487,24.487,0,0,0-6.05,5.517c-.048.056-.1.118-.159.184-.611.706-1.535,1.774-1.363,2.768a1.432,1.432,0,0,0,.756,1.013,4.508,4.508,0,0,0,2.239.473,6.4,6.4,0,0,0,.7.037c-.109.26-.219.52-.328.793l-.011.031a.982.982,0,0,0,.2.952,1.155,1.155,0,0,0,1.04.4l.069-.016a11.308,11.308,0,0,0,5.849-4.113,17.19,17.19,0,0,0,1.813-2.75l.11-.2a11.9,11.9,0,0,0,.945-2.056c.337-.161.66-.3,1.045-.442.443-.161,1.365-.5,1.679-.182l.027.025c.149.131.133.515-.04.979l-.013.038a13.158,13.158,0,0,1-.961,2.195c-.085.167-.17.333-.259.511-.155.328-.316.663-.479,1-.315.656-.641,1.333-.943,2.012a1.01,1.01,0,0,0,.219,1.162.936.936,0,0,0,1.128.123l.041-.026c.552-.378,1.114-.762,1.672-1.157q-.067.213-.131.424a17.847,17.847,0,0,0-.82,4.633v.021a.843.843,0,0,0,.776.829q.042,0,.083,0a.753.753,0,0,0,.752-.611l.005-.032a24.1,24.1,0,0,1,2.5-7.733,58.7,58.7,0,0,0,8.92-9.051Zm-22.343,8.162a12.277,12.277,0,0,0-1.994,2.856,4.121,4.121,0,0,1-2.425-.573l-.087-.053a2.23,2.23,0,0,1,.259-.361c.054-.067.108-.132.157-.2.329-.438.726-.892,1.113-1.335a22.519,22.519,0,0,1,4.823-4.385l.016-.011a7.784,7.784,0,0,1,2.813-1.222l.032-.008c.643-.176.741.058.821.251a1.51,1.51,0,0,1,.076.761,10.514,10.514,0,0,0-1.575.887,17.249,17.249,0,0,0-4.029,3.389m.239,3.116a14.553,14.553,0,0,1,3.851-4.113l.015-.011a13.035,13.035,0,0,1-1.276,1.819,11.333,11.333,0,0,1-2.59,2.306" transform="translate(-637.205 -165.769)" fill="#fdc31d"/>
                <path id="Контур_65" data-name="Контур 65" d="M968.244,223.08a11.464,11.464,0,0,0-3.213.313c.038-.537.076-1.083.114-1.654V221.7c0-.875,0-1.781-.058-2.649-.03-.472-.088-.943-.145-1.4s-.111-.892-.138-1.321c-.044-.936.413-1.464,1.107-2.263l.073-.084a24.606,24.606,0,0,0,1.562-2.081,1.319,1.319,0,0,0,.256-1.449c-.391-.684-1.328-.449-1.832-.323-.089.022-.173.043-.22.051l-.038.008a8.935,8.935,0,0,0-3.8,2,.89.89,0,0,0-.285.153l-.034.03a18.6,18.6,0,0,1-6.78,4.365l-.075.022c-1.607.482-4.034,1.211-5.2-.091l-.011-.012c-.334-.353-.46-1.046.831-2.342a.926.926,0,0,0,.1-1.332.992.992,0,0,0-1.4-.127c-.406.321-.811.653-1.2.975a17.088,17.088,0,0,1-5.386,3.419,6.907,6.907,0,0,1-3.51.5l-.014,0a1.608,1.608,0,0,1-1.054-.652,2.3,2.3,0,0,1,.039-1.838,8.437,8.437,0,0,1,1.275-2.238l.018-.022a6.922,6.922,0,0,1,.791-.841,7.98,7.98,0,0,0,.9-.962.643.643,0,0,0,.125-.576.615.615,0,0,0-.43-.438.585.585,0,0,0-.385.027,4.669,4.669,0,0,0-2.2,1.516l-.014.016a11.81,11.81,0,0,0-1.548,2.267l-.007.016c-.982,2.128-.7,4,.754,5.007a4.3,4.3,0,0,0,2.522.71,8.361,8.361,0,0,0,1.843-.226,14.79,14.79,0,0,0,4.382-1.779c.473-.3.94-.635,1.428-1.014a2.3,2.3,0,0,0,.077.22,3.513,3.513,0,0,0,2.6,2.227,7.943,7.943,0,0,0,3.98-.169,16.61,16.61,0,0,0,4.463-1.821,15.427,15.427,0,0,0,2.482-1.765.78.78,0,0,0,.578-.313l.034-.051a6.1,6.1,0,0,1,.469-.68q.25-.267.486-.546a7.157,7.157,0,0,1,1.99-1.4l.026-.014a4.059,4.059,0,0,1,.446-.208l-.385.43-.011.013c-.081.1-.163.19-.245.285a5.523,5.523,0,0,0-1.4,2.324,5.823,5.823,0,0,0-.076,2.072l.007.07c.11.829.168,1.682.223,2.513a29.863,29.863,0,0,1-.133,4.126,22.975,22.975,0,0,0-4.064,2.21c-1.266.881-2.6,1.915-3.854,2.992a39.973,39.973,0,0,0-3.573,3.4,21.812,21.812,0,0,0-4.894,8.341,9.755,9.755,0,0,0-.342,5.545,5.789,5.789,0,0,0,2.965,3.585l.021.009a4.423,4.423,0,0,0,1.757.372c2.984,0,5.353-3.158,6.464-4.639a33.391,33.391,0,0,0,4.627-8.843,55.959,55.959,0,0,0,2.47-9.762c.091-.543.188-1.162.254-1.77.442-.131.869-.25,1.3-.335l.016,0a6.782,6.782,0,0,1,2.049-.158l.043,0a.955.955,0,0,0,.014-1.906M951.66,248.393a2.809,2.809,0,0,1-2.926-1.258,5.774,5.774,0,0,1-.593-4.182A18.28,18.28,0,0,1,952,235.13a40.524,40.524,0,0,1,6.4-5.944,25.848,25.848,0,0,1,4.3-2.842,56.1,56.1,0,0,1-1.711,7.594,35.636,35.636,0,0,1-3.532,8.3,23.37,23.37,0,0,1-2.61,3.664l-.012.014a6.891,6.891,0,0,1-3.176,2.482" transform="translate(-805.995 -180.846)" fill="#fdc31d"/>
                <path id="Контур_66" data-name="Контур 66" d="M1222.311,208.457a.816.816,0,0,0-1.061,0l-.035.03a18.6,18.6,0,0,1-6.78,4.365l-.075.022c-1.607.482-4.034,1.211-5.2-.091l-.01-.012c-.334-.354-.46-1.046.831-2.342a.926.926,0,0,0,.1-1.332.992.992,0,0,0-1.4-.127c-.406.321-.811.653-1.2.975a17.087,17.087,0,0,1-5.386,3.419,6.905,6.905,0,0,1-3.51.5l-.014,0a1.608,1.608,0,0,1-1.054-.652,2.3,2.3,0,0,1,.039-1.838,8.432,8.432,0,0,1,1.275-2.238l.018-.022a6.949,6.949,0,0,1,.791-.841,7.985,7.985,0,0,0,.9-.962.643.643,0,0,0,.125-.576.616.616,0,0,0-.43-.438.585.585,0,0,0-.385.027,4.67,4.67,0,0,0-2.2,1.516l-.014.016a11.808,11.808,0,0,0-1.548,2.267l-.007.016a7.167,7.167,0,0,0-.3.762l-.215.129c-2.661,1.6-5.412,3.251-8.551,3.623-.738.105-2.523.247-3.144-.709-.544-.879-.075-2.044.518-3.176.116-.176.216-.348.313-.514.08-.136.156-.267.238-.4a8.145,8.145,0,0,0,2.537-2.877,1.057,1.057,0,0,0-.136-1.146.97.97,0,0,0-1.024-.318l-.035.011a4.23,4.23,0,0,0-2.094,1.75l-.02.032c-.081.142-.171.286-.267.438-.136.218-.276.442-.407.686-.083.045-.169.088-.257.132-.141.07-.286.143-.436.232a16.231,16.231,0,0,1-3.282.95c-.448.1-.91.2-1.36.309-.3.065-.682.159-1.106.29l.681-1.107.009-.016c.122-.212.226-.422.328-.625s.187-.373.289-.553a3.444,3.444,0,0,0,.585-1.327.713.713,0,0,0-.348-.783.79.79,0,0,0-.9.092,2.746,2.746,0,0,0-.55.686,3.5,3.5,0,0,1-.2.3l-.048.071c-.109.191-.217.367-.332.553s-.224.364-.338.563c-.376.545-.719,1.114-1.051,1.665-.123.2-.246.407-.368.606-.172.259-.345.532-.512.8-.151.24-.308.487-.461.719a4.905,4.905,0,0,0-1.954,3.446.9.9,0,0,0,.609.967,1.069,1.069,0,0,0,1.259-.377l.028-.046c.428-.8.869-1.63,1.35-2.386a7,7,0,0,1,.714-.522,13.556,13.556,0,0,1,4.041-1.3c.795-.167,1.484-.337,2.1-.519a4.446,4.446,0,0,0-.192,2.73,3.956,3.956,0,0,0,3.856,2.688q.274.017.547.017a13.856,13.856,0,0,0,5.1-1.137,21.609,21.609,0,0,0,4.286-2.362,3,3,0,0,0,1.267,1.963,4.3,4.3,0,0,0,2.522.71,8.36,8.36,0,0,0,1.843-.226,14.785,14.785,0,0,0,4.382-1.779c.473-.3.94-.635,1.428-1.014a2.261,2.261,0,0,0,.077.22,3.513,3.513,0,0,0,2.6,2.227,7.943,7.943,0,0,0,3.98-.169,16.6,16.6,0,0,0,4.463-1.822,15.025,15.025,0,0,0,4.3-3.655l.042-.061a.877.877,0,0,0-.16-1.115" transform="translate(-1009.228 -176.956)" fill="#fdc31d"/>
            </g>
        </g>
    </g>
</svg>
